<?xml version="1.0" encoding="utf-8"?>
<!-- Generator: Adobe Illustrator 26.5.0, SVG Export Plug-In . SVG Version: 6.00 Build 0)  -->
<svg version="1.0" id="katman_1" xmlns="http://www.w3.org/2000/svg" xmlns:xlink="http://www.w3.org/1999/xlink" x="0px" y="0px"
	 viewBox="0 0 1190.55 841.89" style="enable-background:new 0 0 1190.55 841.89;" xml:space="preserve">
<style type="text/css">
	.st0{fill:#014C7C;}
	.st1{fill:#FFFFFF;}
	.st2{fill:#3A3B3F;}
	.st3{fill:#010202;}
</style>
<g>
	<g>
		<path class="st0" d="M360.4,295.85H145v216h215.4V295.85z"/>
		<path class="st1" d="M241.6,348.05v51.6c-6.6-6.3-15.6-9.9-24.9-9.9c-9.3,0-18,3.9-24.6,10.2c-13.5,13.5-12.9,36,0.6,49.5
			c6.6,6.3,15,9.6,24,9.6s17.7-3.6,24-9.6v9.6h10.8v-111H241.6z M217.3,448.25c-6.3,0-12.6-2.7-17.1-7.2s-7.2-10.5-7.2-17.1
			c0.3-6.3,2.7-12.3,7.2-16.8s10.5-7.2,16.8-7.2c3.3,0,6.3,0.6,9.3,1.8c3,1.2,5.7,3,7.8,5.1c2.1,2.1,3.9,4.8,5.1,7.8
			c1.2,3,1.8,6,1.8,9.3C241.6,437.75,230.8,448.85,217.3,448.25z"/>
		<path class="st1" d="M298.3,388.55v10.8c-3.3,0-6.3,0.6-9.3,1.8c-3,1.2-5.7,3-8.1,5.4s-4.2,5.1-5.4,8.1c-1.2,3-1.8,6.3-1.8,9.6
			l0,0v35.4h-10.8v-71.1h10.8v10.2C280.3,392.45,289,388.85,298.3,388.55L298.3,388.55z"/>
		<path class="st1" d="M322.9,436.55v10.2h-12.3v12.3h-10.2v-12.3h-12.3v-10.2h12.3v-12.3h10.2v12.3H322.9z"/>
		<path class="st2" d="M396.4,424.85v-1.2c-0.3-4.5,0.3-9,2.1-13.2c1.5-4.2,3.9-8.1,6.9-11.4s6.6-6,10.8-8.1c4.2-1.8,8.4-3,12.9-3.3
			h1.5c9,0,17.7,3.3,24,9.6c6.3,6.3,10.2,14.7,10.2,23.7v3.9c0.3,9-3,17.7-9,24.3c-6,6.6-14.4,10.5-23.4,11.1s-17.7-2.4-24.3-8.4
			c-6.6-6-10.8-14.1-11.4-23.1C396.4,427.25,396.4,426.05,396.4,424.85L396.4,424.85z M457,424.85v-1.2c0-18.9-12-30-26.7-30
			c-15,0-26.7,11.4-26.7,29.4v1.2c0,18.3,11.4,29.4,26.7,29.4S457,443.15,457,424.85L457,424.85z"/>
		<path class="st2" d="M476.2,388.55h6.9v14.1c2.4-4.5,6-8.4,10.2-10.8c4.2-2.7,9.3-4.2,14.4-4.2c15,0,25.2,8.1,25.2,27.9v43.5H526
			v-44.1c0-15-6.9-21.6-19.8-21.6c-5.7-0.3-11.4,1.8-15.9,5.7c-4.2,3.9-6.9,9.3-7.2,15.3v44.7h-6.9
			C476.2,459.05,476.2,388.55,476.2,388.55z"/>
		<path class="st2" d="M573.4,425.15v-1.2c0-21.6,13.8-36.6,32.7-36.6c5.4-0.3,10.8,1.2,15.6,4.2c4.5,3,8.1,7.2,10.2,12.3v-55.5h6.9
			v111.3h-6.9v-16.2c-2.4,5.1-6,9.6-10.8,12.6c-4.8,3-10.2,4.5-15.9,4.5C587.2,460.25,573.4,447.35,573.4,425.15z M632.2,424.85
			v-1.2c0-19.2-10.8-29.4-25.2-29.4c-14.4,0-25.8,10.8-25.8,30v1.2c0,19.2,10.8,29.4,25.2,29.4
			C621.1,454.85,632.2,444.05,632.2,424.85z"/>
		<path class="st2" d="M651.4,424.85v-1.2c0-21.6,13.5-36,32.1-36c17.1,0,31.2,11.4,31.2,34.5v2.7h-55.8c0,18.9,9,29.4,25.8,29.4
			c12,0,19.8-4.8,21.9-14.4h6.9c-3.3,13.5-13.8,21-29.4,21C664.3,460.25,651.4,445.55,651.4,424.85z M707.2,418.85
			c-0.6-17.1-9.6-25.2-23.7-25.2c-13.8,0-23.1,9.6-24.6,25.2H707.2z"/>
		<path class="st2" d="M726.7,388.55h6.9v13.5c2.1-4.5,5.4-8.1,9.3-10.5c4.2-2.7,8.7-3.9,13.5-3.9c4.8-0.6,9.6,0.9,13.8,3.6
			c3.9,3,6.6,7.2,7.8,12c2.1-4.8,5.7-9,10.2-11.7c4.5-2.7,9.6-4.2,15-3.9c13.5,0,23.7,7.5,23.7,27.3v44.1H820v-44.4
			c0-15-6.3-21-17.7-21c-12-0.6-21.3,9-21.9,21v44.7h-6.9v-44.7c0-15-6.3-21-17.7-21c-5.7,0-11.1,2.1-15.3,6
			c-4.2,3.9-6.6,9.3-6.9,15v44.7h-6.9V388.55z"/>
		<path class="st2" d="M838.6,440.15c0-16.2,15.6-21.6,33.3-21.6h14.4v-6.3c0-13.5-5.4-18.9-17.7-18.9c-10.8,0-18.3,4.8-19.8,15
			h-6.9c1.5-15,13.8-21,27.3-21c14.4,0,24.6,6.9,24.6,24.6v46.8h-6.9v-10.8c-2.7,3.9-6,6.9-10.2,9c-4.2,2.1-8.7,3-13.5,2.7
			C848.2,460.25,838.6,453.65,838.6,440.15z M886.3,436.55v-12h-14.4c-14.4,0-26.4,3.3-26.4,15.6c0,9,5.4,14.4,17.1,14.4
			C875.5,454.85,886.3,446.75,886.3,436.55L886.3,436.55z"/>
		<path class="st2" d="M909.7,388.55h6.9v14.1c2.4-4.5,6-8.4,10.2-10.8c4.2-2.7,9.3-4.2,14.4-4.2c15,0,25.2,8.1,25.2,27.9v43.5h-6.9
			v-44.1c0-15-6.9-21.6-19.2-21.6c-5.7-0.3-11.4,1.8-15.9,5.7c-4.2,3.9-6.9,9.3-7.2,15.3v44.7h-6.9L909.7,388.55z"/>
		<path class="st2" d="M978.4,425.15v-1.2c0-21.6,13.8-36.6,32.7-36.6c5.7-0.3,11.1,1.2,15.9,4.2c4.8,3,8.4,7.5,10.5,12.6v-56.1h6.9
			v111.3h-6.9v-16.2c-2.4,5.1-6,9.6-10.8,12.6c-4.8,3-10.2,4.5-15.9,4.5C992.5,460.25,978.4,447.35,978.4,425.15z M1036.9,424.85
			v-1.2c0-19.2-10.8-29.4-25.2-29.4c-14.4,0-26.4,10.8-26.4,30v1.2c0,19.2,10.8,29.4,25.2,29.4
			C1024.9,454.85,1037.5,444.05,1036.9,424.85z"/>
		<path class="st2" d="M367,502.55c0-1.2,0.3-2.4,0.6-3.6c0.6-1.2,1.2-2.1,2.1-3c0.9-0.9,1.8-1.5,3-2.1c1.2-0.6,2.4-0.6,3.6-0.6
			c1.2,0,2.4,0.3,3.6,0.6c1.2,0.3,2.1,1.2,3,2.1c0.9,0.9,1.5,1.8,2.1,3c0.6,1.2,0.6,2.4,0.6,3.6c0,5.4-3.9,8.7-9,8.7
			c-1.2,0-2.4,0-3.3-0.6c-1.2-0.3-2.1-0.9-3-1.8c-0.9-0.9-1.5-1.8-2.1-3C367,504.95,367,503.75,367,502.55L367,502.55z
			 M383.5,502.55c0-1.5-0.3-3-1.2-4.2c-0.9-1.2-2.1-2.1-3.3-2.7c-1.5-0.6-3-0.6-4.2-0.3s-2.7,0.9-3.9,2.1c-0.9,1.2-1.8,2.4-2.1,3.9
			s0,3,0.3,4.2c0.6,1.5,1.5,2.7,2.7,3.3c1.2,0.9,2.7,1.2,4.2,1.2c0.9,0,1.8,0,2.7-0.3c0.9-0.3,1.8-0.9,2.4-1.5
			c0.6-0.6,1.2-1.5,1.8-2.4c0.3-0.9,0.6-1.8,0.6-2.7V502.55z M372.7,497.75h3.3c2.1,0,3.3,1.2,3.3,2.7c0,0.6,0,1.2-0.3,1.5
			c-0.3,0.6-0.6,0.9-1.2,1.2l2.1,3.9h-1.8l-2.1-3.3h-1.2v3.3h-2.1V497.75z M376,501.95c1.2,0,1.8-0.6,1.8-1.2c0-1.2-0.6-1.2-1.8-1.2
			h-1.2v2.7h1.2V501.95z"/>
		<path class="st3" d="M599.8,529.25v4.5h-4.2v-38.7h4.2v15.6c0.9-1.5,2.4-2.7,3.9-3.6c1.5-0.9,3.3-1.2,5.1-1.2
			c8.4,0,13.2,6,13.2,14.1c0,8.1-4.8,14.1-13.2,14.1c-1.8,0-3.6-0.3-5.1-1.2C601.9,531.95,600.7,530.75,599.8,529.25z M617.5,519.95
			c0-6.3-3.6-10.2-9-10.2s-9,3.9-9,10.2s3.6,10.2,9,10.2S617.5,526.25,617.5,519.95L617.5,519.95z"/>
		<path class="st3" d="M639.4,530.15l-5.1,15h-4.2l3.6-10.5l-10.2-27.9h4.5l7.8,21.6l7.8-21.6h4.5L639.4,530.15z"/>
		<path class="st3" d="M665.8,495.65h4.5v38.1h-4.5V495.65z"/>
		<path class="st3" d="M678.1,506.45h4.2v5.4c0.6-1.8,1.8-3.3,3.6-4.2c1.5-0.9,3.6-1.5,5.4-1.5c6.3,0,10.2,4.5,10.2,11.1v16.8h-4.2
			v-16.2c0-4.8-2.7-7.8-6.9-7.8c-4.8,0-8.1,3.9-8.1,9v14.7h-4.2V506.45z"/>
		<path class="st3" d="M707.2,519.95c0-7.2,4.8-14.1,13.2-14.1c6,0,11.7,3.6,12.3,9.6h-4.2c-0.6-3.3-3.9-5.7-8.1-5.7
			c-6,0-8.7,4.5-8.7,10.2s3,10.2,8.7,10.2c4.2,0,7.2-2.1,8.1-5.4h4.2c-0.9,5.7-5.4,9.3-12.3,9.3
			C711.7,534.05,707.2,527.45,707.2,519.95z"/>
		<path class="st3" d="M738.4,495.05h4.2v38.7h-4.2V495.05z"/>
		<path class="st3" d="M773.5,533.75h-4.2v-5.4c-0.6,1.8-1.8,3.3-3.6,4.2c-1.5,0.9-3.6,1.5-5.4,1.5c-6.3,0-10.2-4.5-10.2-11.1v-16.8
			h4.2v15.9c0,4.8,2.7,7.8,6.9,7.8c4.8,0,8.1-3.6,8.1-9v-14.7h4.2V533.75z"/>
		<path class="st3" d="M779.2,519.95c0-8.1,4.8-14.1,13.2-14.1c1.8,0,3.6,0.3,5.1,1.2c1.5,0.9,3,2.1,3.9,3.6v-15.6h4.2v38.7h-4.2
			v-4.5c-0.9,1.5-2.4,2.7-3.9,3.6c-1.5,0.9-3.3,1.2-5.1,1.2C784,534.05,779.2,528.05,779.2,519.95z M802,519.95
			c0-6.3-3.6-10.2-9-10.2s-9,3.9-9,10.2s3.6,10.2,9,10.2S802,526.25,802,519.95L802,519.95z"/>
		<path class="st3" d="M837.7,525.05c-0.9,5.7-5.7,9.3-12.6,9.3c-8.1,0-13.5-6.6-13.5-14.4s5.1-14.1,12.9-14.1
			c8.1,0,12.6,5.4,12.6,12.9c0,0.6,0,1.5,0,1.8h-21.3c0.3,5.7,4.2,9.6,9.3,9.6c4.5,0,7.2-2.1,8.1-5.4h4.5V525.05z M816.1,517.25
			h16.8c0-1.2-0.3-2.1-0.6-3c-0.3-0.9-1.2-1.8-1.8-2.4c-0.9-0.6-1.8-1.2-2.7-1.5c-0.9-0.3-2.1-0.6-3-0.3
			C820,509.75,817,512.45,816.1,517.25L816.1,517.25z"/>
		<path class="st3" d="M841.6,519.95c0-8.1,4.8-14.1,13.2-14.1c1.8,0,3.6,0.3,5.1,1.2c1.5,0.9,3,2.1,3.9,3.6v-15.6h4.2v38.7h-4.2
			v-4.5c-0.9,1.5-2.4,2.7-3.9,3.6c-1.5,0.9-3.3,1.2-5.1,1.2C846.4,534.05,841.6,528.05,841.6,519.95z M864.4,519.95
			c0-6.3-3.6-10.2-9-10.2s-9,3.9-9,10.2s3.6,10.2,9,10.2S864.4,526.25,864.4,519.95z"/>
		<path class="st3" d="M918.4,495.65v38.1h-4.5v-17.4h-20.1v17.4H889v-38.1h4.5v16.2h20.1v-16.2H918.4z"/>
		<path class="st3" d="M950.2,525.05c-0.9,5.7-5.7,9.3-12.6,9.3c-8.1,0-13.5-6.6-13.5-14.4s5.1-14.1,12.9-14.1
			c8.1,0,12.6,5.4,12.6,12.9c0,0.6,0,1.2,0,1.8h-21.3c0.3,5.7,4.2,9.6,9.3,9.6c4.5,0,7.2-2.1,8.1-5.4h4.5V525.05z M928.9,517.25
			h16.8c0-1.2-0.3-2.1-0.6-3c-0.3-0.9-1.2-1.8-1.8-2.4c-0.9-0.6-1.8-1.2-2.7-1.5c-0.9-0.3-2.1-0.6-3-0.3
			C932.8,509.75,929.5,512.45,928.9,517.25L928.9,517.25z"/>
		<path class="st3" d="M954.7,519.95c0-8.1,4.8-14.1,13.2-14.1c1.8,0,3.6,0.3,5.1,1.2c1.5,0.9,3,1.8,3.9,3.3v-3.9h4.2v27.3h-4.2
			v-4.2c-1.2,2.7-4.8,4.5-9,4.5C959.2,534.05,954.7,528.05,954.7,519.95z M977.2,519.95c0-6.3-3.6-10.2-9-10.2c-5.4,0-9,3.9-9,10.2
			s3.6,10.2,9,10.2C973.6,530.15,977.2,526.25,977.2,519.95z"/>
		<path class="st3" d="M988.6,495.05h4.2v38.7h-4.2V495.05z"/>
		<path class="st3" d="M1007.8,497.75v8.7h8.4v3.9h-8.4v14.7c0,3,1.8,4.8,4.5,4.8h3.9v3.9h-4.2c-1.2,0-2.4,0-3.3-0.6
			c-1.2-0.3-2.1-0.9-2.7-1.8c-0.9-0.9-1.5-1.8-1.8-3c-0.3-1.2-0.6-2.1-0.6-3.3v-15h-5.7v-3.9h5.7v-8.7h4.2V497.75z"/>
		<path class="st3" d="M1021.6,495.05h4.2v16.5c0.6-1.8,1.8-3.3,3.6-4.2c1.5-0.9,3.6-1.5,5.4-1.5c6.3,0,10.2,4.5,10.2,11.1v16.8
			h-4.2v-15.9c0-4.8-2.7-7.8-6.9-7.8c-4.8,0-8.1,3.9-8.1,9v14.7h-4.2V495.05z"/>
	</g>
</g>
</svg>
