<?xml version="1.0" encoding="utf-8"?>
<!-- Generator: Adobe Illustrator 19.0.0, SVG Export Plug-In . SVG Version: 6.00 Build 0)  -->
<svg version="1.1" id="layer" xmlns="http://www.w3.org/2000/svg" xmlns:xlink="http://www.w3.org/1999/xlink" x="0px" y="0px"
	 viewBox="-153 -46 652 652" style="enable-background:new -153 -46 652 652;" xml:space="preserve">
<style type="text/css">
	.st0{fill:#455561;}
	.st1{fill:#0387C4;}
	.st2{fill:#05ABF7;}
	.st3{fill:#1D242A;}
</style>
<rect x="-49.2" y="226.4" transform="matrix(-0.9317 -0.3633 0.3633 -0.9317 -183.3409 464.4801)" class="st0" width="2.3" height="46.1"/>
<rect x="-56.7" y="273.5" transform="matrix(-0.9848 -0.1738 0.1738 -0.9848 -116.8768 539.1826)" class="st0" width="43.8" height="2.3"/>
<path class="st0" d="M-48.9,319.4c-0.6,0-1.1-0.4-1.1-0.9l-7.5-47.4c-0.2-0.6,0.4-1.1,0.9-1.3c0.6,0,1.1,0.4,1.3,0.9l7.5,47.2
	C-47.8,318.7-48.1,319.2-48.9,319.4L-48.9,319.4z"/>
<path class="st0" d="M-79.7,321.1c-0.2,0-0.4,0-0.6-0.2c-0.6-0.2-0.8-0.9-0.6-1.5l23.3-49.1c0.2-0.6,0.9-0.8,1.5-0.6
	s0.8,0.9,0.6,1.5l-23.1,49.2C-78.7,320.9-79.3,321.1-79.7,321.1z"/>
<path class="st0" d="M-29,299.6c-0.4,0-0.6-0.2-0.8-0.4l-27.3-27.5c-0.4-0.4-0.4-1.1,0-1.7c0.4-0.4,1.1-0.4,1.7,0l27.3,27.5
	c0.4,0.4,0.4,1.1,0,1.7C-28.5,299.4-28.8,299.6-29,299.6z"/>
<path class="st0" d="M-97.2,293c-0.4,0-0.8-0.2-0.9-0.6c-0.4-0.6,0-1.3,0.6-1.5l41-21c0.6-0.4,1.3,0,1.5,0.6c0.4,0.6,0,1.3-0.6,1.5
	l-41.2,21C-97,293-97.2,293-97.2,293z"/>
<path class="st0" d="M-56.4,272.1L-56.4,272.1l-63.2-15.6c-0.6-0.2-0.9-0.8-0.9-1.3c0.2-0.6,0.8-0.9,1.3-0.9l63.1,15.5
	c0.6,0.2,0.9,0.8,0.9,1.3C-55.4,271.7-55.8,272.1-56.4,272.1z"/>
<path class="st0" d="M-56.4,272.1c-0.4,0-0.8-0.2-0.9-0.4l-37.5-46.1c-0.4-0.6-0.4-1.1,0.2-1.7c0.6-0.4,1.3-0.4,1.7,0.2l37.5,46.1
	c0.4,0.6,0.4,1.1-0.2,1.7C-55.8,272.1-56,272.1-56.4,272.1z"/>
<path class="st0" d="M-56.4,272.1c-0.6,0-1.1-0.4-1.1-1.1l-6-66.9c0-0.6,0.4-1.1,1.1-1.3c0.6,0,1.1,0.4,1.3,1.1l6,66.9
	C-55,271.5-55.6,272.1-56.4,272.1C-56.2,272.1-56.4,272.1-56.4,272.1z"/>
<rect x="-25.2" y="227.3" transform="matrix(-0.2909 -0.9567 0.9567 -0.2909 -280.7164 313.9537)" class="st0" width="2.3" height="67.4"/>
<path class="st0" d="M-39.5,229.1c-0.6,0-1.1-0.6-1.1-1.1v-36.3c0-0.6,0.6-1.1,1.1-1.1c0.5,0,1.1,0.6,1.1,1.1v36.5
	C-38.4,228.6-39,229.1-39.5,229.1z"/>
<path class="st0" d="M8.2,252.4c-0.2,0-0.4,0-0.6-0.2l-47.7-23.3c-0.6-0.2-0.8-0.9-0.6-1.5c0.2-0.6,0.9-0.8,1.5-0.6l47.8,23.3
	c0.6,0.2,0.8,0.9,0.6,1.5C9.2,252.2,8.8,252.4,8.2,252.4z"/>
<path class="st0" d="M-39.5,229.1L-39.5,229.1l-54.3-3c-0.6,0-1.1-0.6-1.1-1.1c0-0.6,0.6-1.1,1.1-1.1l54.3,3c0.6,0,1.1,0.6,1.1,1.1
	C-38.4,228.7-39,229.1-39.5,229.1z"/>
<path class="st0" d="M-39.5,229.1c-0.2,0-0.6,0-0.8-0.2c-0.6-0.4-0.6-1.1-0.2-1.7l19.9-23.3c0.4-0.6,1.1-0.6,1.7-0.2
	s0.6,1.1,0.2,1.7l-19.9,23.3C-39,228.9-39.1,229.1-39.5,229.1z"/>
<path class="st0" d="M-41.3,227.6c-0.4,0-0.6-0.2-0.8-0.4l-21-22.1c-0.6-0.6-0.6-1.3,0-1.7c0.4-0.4,1.1-0.4,1.7,0l21,22.1
	c0.4,0.4,0.4,1.1,0,1.7C-40.7,227.4-40.9,227.6-41.3,227.6z"/>
<path class="st0" d="M8.2,252.4c-0.6,0-1.1-0.6-1.1-1.1v-37.9c0-0.6,0.6-1.1,1.1-1.1s1.1,0.6,1.1,1.1v37.8
	C9.6,251.8,9,252.4,8.2,252.4z"/>
<path class="st0" d="M8.2,252.4c-0.4,0-0.8-0.2-0.9-0.4c-0.4-0.6-0.4-1.3,0.2-1.7l58.4-44.9c0.6-0.4,1.3-0.4,1.7,0.2
	s0.4,1.3-0.2,1.7L9,252.2C8.8,252.4,8.6,252.4,8.2,252.4z"/>
<path class="st0" d="M50.8,257.2C50.8,257.2,50.6,257.2,50.8,257.2l-42.6-4.7c-0.6,0-1.1-0.6-0.9-1.3c0-0.6,0.6-1.1,1.3-0.9
	l42.4,4.7c0.6,0,1.1,0.6,0.9,1.3C51.9,256.8,51.4,257.2,50.8,257.2z"/>
<path class="st0" d="M48,285.1c-0.2,0-0.6,0-0.8-0.2L7.5,252.2c-0.6-0.4-0.6-1.1-0.2-1.7c0.4-0.6,1.1-0.6,1.7-0.2l39.7,32.6
	c0.6,0.4,0.6,1.1,0.2,1.7C48.7,284.9,48.3,285.1,48,285.1z"/>
<path class="st0" d="M8.2,290.2c-0.6,0-1.1-0.6-1.1-1.1v-37.9c0-0.6,0.6-1.1,1.1-1.1c0.6,0,1.1,0.6,1.1,1.1v37.9
	C9.6,289.6,9,290.2,8.2,290.2z"/>
<path class="st0" d="M43.1,225.8c-0.6,0-1.1-0.6-1.1-1.1v-29.8c0-0.6,0.6-1.1,1.1-1.1s1.1,0.6,1.1,1.1v29.8
	C44.3,225.4,43.9,225.8,43.1,225.8z"/>
<path class="st0" d="M67.4,232.3c-0.2,0-0.2,0-0.4,0l-24.3-6.5c-0.6-0.2-0.9-0.8-0.8-1.5c0.2-0.6,0.8-0.9,1.5-0.8l24.3,6.5
	c0.6,0.2,0.9,0.8,0.8,1.5C68.4,232,68,232.3,67.4,232.3z"/>
<path class="st1" d="M-119.3,248c4.1,0,7.5,3.3,7.5,7.5c0,4.1-3.3,7.5-7.5,7.5c-4.1,0-7.5-3.3-7.5-7.5
	C-126.8,251.3-123.4,248-119.3,248z M-97.2,284.4c4.1,0,7.5,3.3,7.5,7.5s-3.3,7.5-7.5,7.5c-4.1,0-7.5-3.3-7.5-7.5
	S-101.4,284.4-97.2,284.4z M-93.8,217.4c4.1,0,7.5,3.3,7.5,7.5c0,4.1-3.3,7.5-7.5,7.5c-4.1,0-7.5-3.3-7.5-7.5
	C-101.3,220.8-97.9,217.4-93.8,217.4z M-62.3,198.5c3.1,0,5.6,2.5,5.6,5.6s-2.5,5.6-5.6,5.6c-3.1,0-5.6-2.5-5.6-5.6
	S-65.3,198.5-62.3,198.5z M-79.7,312.5c4.1,0,7.5,3.3,7.5,7.5s-3.3,7.5-7.5,7.5s-7.5-3.3-7.5-7.5S-83.8,312.5-79.7,312.5z
	 M-48.9,310.6c4.1,0,7.5,3.3,7.5,7.5s-3.3,7.5-7.5,7.5s-7.5-3.3-7.5-7.5S-53.1,310.6-48.9,310.6z M-13.2,273c3.1,0,5.6,2.5,5.6,5.6
	s-2.5,5.6-5.6,5.6s-5.6-2.5-5.6-5.6S-16.2,273-13.2,273z M8.2,205.9c4.1,0,7.5,3.3,7.5,7.5s-3.3,7.5-7.5,7.5s-7.5-3.3-7.5-7.5
	S4,205.9,8.2,205.9z M48,278.4c3.1,0,5.6,2.5,5.6,5.6c0,3.1-2.5,5.6-5.6,5.6c-3.1,0-5.6-2.5-5.6-5.6C42.4,280.9,44.9,278.4,48,278.4
	z M50.8,250.5c3.1,0,5.6,2.5,5.6,5.6c0,3.1-2.5,5.6-5.6,5.6c-3.1,0-5.6-2.5-5.6-5.6C45.3,253,47.7,250.5,50.8,250.5z M43.1,217.2
	c4.1,0,7.5,3.3,7.5,7.5c0,4.1-3.3,7.5-7.5,7.5s-7.5-3.3-7.5-7.5C35.7,220.6,39,217.2,43.1,217.2z"/>
<path class="st2" d="M-39.5,186.1c3.1,0,5.6,2.5,5.6,5.6c0,3.1-2.5,5.6-5.6,5.6c-3.1,0-5.6-2.5-5.6-5.6
	C-45.1,188.6-42.6,186.1-39.5,186.1z M-19.7,199.1c3.1,0,5.6,2.5,5.6,5.6c0,3.1-2.5,5.6-5.6,5.6s-5.6-2.5-5.6-5.6
	C-25.3,201.5-22.8,199.1-19.7,199.1z M8.2,281.6c4.1,0,7.5,3.3,7.5,7.5s-3.3,7.5-7.5,7.5s-7.5-3.3-7.5-7.5S4,281.6,8.2,281.6z
	 M67.4,225.6c3.1,0,5.6,2.5,5.6,5.6c0,3.1-2.5,5.6-5.6,5.6s-5.6-2.5-5.6-5.6C61.8,228.1,64.3,225.6,67.4,225.6z M66.7,200.8
	c3.1,0,5.6,2.5,5.6,5.6c0,3.1-2.5,5.6-5.6,5.6c-3.1,0-5.6-2.5-5.6-5.6C61.1,203.3,63.6,200.8,66.7,200.8z M43.1,189.4
	c3.1,0,5.6,2.5,5.6,5.6s-2.5,5.6-5.6,5.6s-5.6-2.5-5.6-5.6S40.1,189.4,43.1,189.4z"/>
<path class="st3" d="M-56.4,259.5c6.3,0,11.4,5.1,11.4,11.4s-5.1,11.4-11.4,11.4s-11.4-5.1-11.4-11.4S-62.7,259.5-56.4,259.5z
	 M-39.5,218.6c5.2,0,9.4,4.2,9.4,9.4s-4.2,9.4-9.4,9.4s-9.4-4.2-9.4-9.4S-44.7,218.6-39.5,218.6z M8.2,243c4.5,0,8.2,3.7,8.2,8.2
	c0,4.5-3.7,8.2-8.2,8.2S0,255.7,0,251.2C0,246.7,3.6,243,8.2,243z"/>
<path class="st3" d="M30.7,353.3c0,6.7-1.9,11.8-5.8,15.1s-9.2,5-16.5,5c-2.3,0-4.5-0.2-6.9-0.8c-2.1-0.4-4.2-1.1-6.1-2.3
	c-1.8-1.2-3.4-2.5-4.7-4.3c-1.3-1.7-2.1-4-2.3-6.7h9.9c0.4,1.3,0.8,2.5,1.5,3.4c0.8,0.9,1.5,1.5,2.5,2.1c0.9,0.6,2.1,0.8,3.2,0.9
	c1.1,0.1,2.3,0.2,3.6,0.2c4,0,6.9-0.9,8.8-2.8c1.9-1.9,2.8-4.7,2.8-8.6v-6.9h-0.2c-1.3,2.5-3.2,4.3-5.8,5.8c-2.5,1.3-5,2.1-7.9,2.1
	c-3.6,0-6.7-0.6-9.2-1.9c-2.5-0.9-4.5-2.6-6.3-5c-1.7-2.1-2.8-4.5-3.6-7.5c-0.8-2.9-1.1-6-1.1-9.2c0-3,0.4-6,1.3-8.6s2.3-5.2,4-7.1
	c1.7-2.1,3.8-3.6,6.3-5c2.5-1.1,5.4-1.9,8.6-1.9c2.8,0,5.4,0.6,7.9,1.7c2.3,1.1,4.2,3,5.6,5.6h0.2v-6.1h9.9
	C30.7,310.4,30.7,353.3,30.7,353.3z M8.8,347.7c2.3,0,4-0.4,5.6-1.3s2.8-2.1,3.8-3.6c0.9-1.5,1.7-3.2,2.1-5c0.4-1.9,0.6-3.8,0.6-5.8
	c0-1.9-0.2-3.8-0.8-5.6c-0.4-1.7-1.1-3.4-2.1-4.7c-0.9-1.3-2.3-2.5-3.8-3.2c-1.5-0.8-3.4-1.1-5.6-1.1c-2.3,0-4,0.4-5.6,1.3
	s-2.6,2.1-3.6,3.6c-0.9,1.5-1.5,3.2-1.9,5c-0.4,1.9-0.6,3.8-0.6,5.6c0,1.9,0.2,3.6,0.8,5.4c0.4,1.7,1.1,3.4,2.1,4.7
	c0.9,1.3,2.1,2.5,3.6,3.4S6.7,347.7,8.8,347.7z M48.5,335.7c0,1.7,0.2,3.4,0.8,5c0.6,1.5,1.1,3,2.3,4.2c0.9,1.1,2.3,2.1,3.8,2.8
	c1.5,0.8,3.2,1.1,5.4,1.1c2.8,0,5.2-0.6,7.1-1.9c1.7-1.3,3-3,4-5.6h9.4c-0.6,2.5-1.3,4.5-2.6,6.5c-1.3,1.9-2.8,3.4-4.5,4.7
	c-1.7,1.3-3.8,2.3-6.1,2.8c-2.2,0.5-4.5,0.9-7.1,0.9c-3.4,0-6.7-0.6-9.4-1.7c-2.6-1.1-5-2.8-6.9-4.7c-1.9-1.9-3.2-4.5-4.2-7.5
	c-0.9-2.8-1.3-6.1-1.3-9.6c0-3.2,0.6-6.1,1.5-9c0.9-2.8,2.5-5.4,4.3-7.7c1.9-2.1,4.2-3.8,6.9-5.2c2.6-1.3,5.8-1.9,9-1.9
	c3.4,0,6.7,0.8,9.6,2.3c2.8,1.5,5.2,3.4,7.1,6c1.9,2.5,3.2,5.2,4,8.4s1.1,6.5,0.6,9.7C81.9,335.7,48.5,335.7,48.5,335.7z
	 M71.6,329.2c-0.2-1.5-0.4-3-0.9-4.5c-0.6-1.5-1.3-2.6-2.3-3.8s-2.1-1.9-3.4-2.6c-1.3-0.6-2.8-0.9-4.5-0.9s-3.2,0.4-4.7,0.9
	c-1.3,0.6-2.6,1.5-3.6,2.5c-0.9,1.1-1.9,2.3-2.5,3.8c-0.6,1.5-0.9,3-0.9,4.7h23V329.2z M89,310.6h9.4v6.7l0.2,0.2
	c1.5-2.5,3.4-4.3,6-6c2.5-1.3,5.2-2.1,8-2.1c5,0,8.8,1.3,11.6,3.8c2.8,2.5,4.2,6.3,4.2,11.4v30.7h-10v-28.3
	c-0.2-3.4-0.9-6.1-2.3-7.7c-1.3-1.5-3.6-2.3-6.5-2.3c-1.7,0-3.2,0.4-4.5,0.9c-1.3,0.6-2.5,1.5-3.4,2.5c-0.9,1.1-1.7,2.3-2.1,3.8
	c-0.6,1.5-0.8,3-0.8,4.5v26.9h-9.9L89,310.6L89,310.6z M159.6,356.7c-3.6,0-6.9-0.6-9.6-1.7c-2.8-1.1-5.2-2.8-7.1-5
	c-1.9-2.1-3.4-4.5-4.3-7.5c-0.9-2.9-1.5-6.1-1.5-9.6s0.6-6.5,1.5-9.6c0.9-2.8,2.5-5.4,4.3-7.5c1.9-2.1,4.3-3.6,7.1-5
	c2.8-1.1,6-1.7,9.6-1.7c3.6,0,6.9,0.6,9.6,1.7c2.8,1.1,5.2,2.8,7.1,5c1.9,2.1,3.4,4.5,4.3,7.5c0.9,2.8,1.5,6.1,1.5,9.6
	s-0.6,6.7-1.5,9.6c-0.9,2.8-2.5,5.4-4.3,7.5c-1.9,2.1-4.3,3.6-7.1,5C166.2,356.1,163,356.7,159.6,356.7z M159.6,348.8
	c2.3,0,4.2-0.4,5.8-1.3c1.5-0.9,2.8-2.1,4-3.6c0.9-1.5,1.7-3.2,2.3-5.2c0.6-1.9,0.8-3.8,0.8-5.8c0-1.9-0.2-3.8-0.8-5.8
	c-0.6-1.9-1.3-3.6-2.3-5.2c-0.9-1.5-2.3-2.6-4-3.6c-1.5-0.9-3.4-1.3-5.8-1.3c-2.3,0-4.2,0.4-5.8,1.3s-2.8,2.1-4,3.6
	c-0.9,1.5-1.7,3.2-2.3,5.2c-0.6,1.9-0.8,3.8-0.8,5.8c0,1.9,0.2,3.8,0.8,5.8c0.6,1.9,1.3,3.6,2.3,5.2c1,1.5,2.3,2.6,4,3.6
	C155.3,348.5,157.2,348.8,159.6,348.8z M190.3,310.6h9.4v6.3h0.2c0.8-1.1,1.5-2.1,2.5-3c0.9-0.9,1.9-1.7,2.8-2.3
	c1.1-0.6,2.3-1.1,3.6-1.5c1.3-0.4,3-0.6,4.7-0.6c2.6,0,5.2,0.6,7.7,1.9c2.3,1.1,4,3,5,5.8c1.7-2.3,3.6-4.2,5.8-5.6
	c2.1-1.3,5-1.9,8.2-1.9c4.7,0,8.4,1.1,11.1,3.4c2.6,2.3,4,6.1,4,11.6v31.1h-9.9v-26.4c0-1.7,0-3.4-0.2-5c-0.2-1.5-0.4-2.6-0.9-3.8
	c-0.6-1.1-1.3-1.9-2.5-2.5c-1.2-0.6-2.6-0.9-4.5-0.9c-3.4,0-5.8,0.9-7.3,3c-1.5,2.1-2.3,5-2.3,8.8v26.4h-9.9v-28.7
	c0-3-0.6-5.6-1.7-7.1c-1.1-1.5-3.2-2.3-6.1-2.3c-1.3,0-2.5,0.2-3.6,0.8c-1.1,0.6-2.3,1.3-3,2.3c-0.9,0.9-1.5,2.3-2.1,3.6
	c-0.6,1.5-0.8,3-0.8,5v26.8h-9.9L190.3,310.6L190.3,310.6z M273.6,335.7c0,1.7,0.2,3.4,0.8,5c0.6,1.5,1.1,3,2.3,4.2
	c0.9,1.1,2.3,2.1,3.8,2.8c1.5,0.8,3.2,1.1,5.4,1.1c2.8,0,5.2-0.6,7.1-1.9c1.7-1.3,3-3,4-5.6h9.4c-0.6,2.5-1.3,4.5-2.6,6.5
	c-1.3,1.9-2.8,3.4-4.5,4.7c-1.7,1.3-3.8,2.3-6.1,2.8s-4.5,0.9-7.1,0.9c-3.4,0-6.7-0.6-9.4-1.7s-5-2.8-6.9-4.7
	c-1.9-2.1-3.2-4.5-4.2-7.5c-0.9-2.8-1.3-6.1-1.3-9.6c0-3.2,0.6-6.1,1.5-9c0.9-2.8,2.5-5.4,4.3-7.7c1.9-2.1,4.2-3.8,6.9-5.2
	c2.6-1.3,5.8-1.9,9-1.9c3.4,0,6.7,0.8,9.6,2.3c2.8,1.5,5.2,3.4,7.1,6c1.9,2.5,3.2,5.2,4,8.4s1.1,6.5,0.6,9.7
	C307,335.7,273.6,335.7,273.6,335.7z M296.7,329.2c-0.2-1.5-0.4-3-0.9-4.5c-0.6-1.5-1.3-2.6-2.3-3.8s-2.1-1.9-3.4-2.6
	c-1.3-0.6-2.8-0.9-4.5-0.9s-3.2,0.4-4.7,0.9c-1.3,0.6-2.6,1.5-3.6,2.5c-0.9,1.1-1.9,2.3-2.5,3.8c-0.6,1.5-0.9,3-0.9,4.7h23V329.2z"
	/>
<path class="st2" d="M308.7,310.6h10.5l8.8,33.5h0.2l8.4-33.5h9.9l8,33.5h0.2l9.2-33.5H374l-14.1,44.9h-10.1l-8.4-33.5l0,0
	l-8.2,33.5h-10.5L308.7,310.6z M388.2,335.7c0,1.7,0.2,3.4,0.8,5c0.6,1.5,1.1,3,2.3,4.2c0.9,1.1,2.3,2.1,3.8,2.8
	c1.5,0.8,3.2,1.1,5.4,1.1c2.8,0,5.2-0.6,7.1-1.9c1.7-1.3,3-3,4-5.6h9.4c-0.6,2.5-1.3,4.5-2.6,6.5s-2.8,3.4-4.5,4.7
	c-1.7,1.3-3.8,2.3-6.1,2.8s-4.5,0.9-7.1,0.9c-3.4,0-6.7-0.6-9.4-1.7s-5-2.8-6.9-4.7c-1.9-2.1-3.2-4.5-4.2-7.5
	c-1-2.9-1.3-6.1-1.3-9.6c0-3.2,0.6-6.1,1.5-9c0.9-2.9,2.5-5.4,4.3-7.7c1.9-2.1,4.2-3.8,6.9-5.2c2.6-1.3,5.8-1.9,9-1.9
	c3.4,0,6.7,0.8,9.6,2.3c2.8,1.5,5.2,3.4,7.1,6c1.9,2.5,3.2,5.2,4,8.4s1.1,6.5,0.6,9.7C421.6,335.7,388.2,335.7,388.2,335.7z
	 M411.3,329.2c-0.2-1.5-0.4-3-0.9-4.5c-0.6-1.5-1.3-2.6-2.3-3.8s-2.1-1.9-3.4-2.6c-1.3-0.6-2.8-0.9-4.5-0.9s-3.2,0.4-4.7,0.9
	c-1.3,0.6-2.6,1.5-3.6,2.5c-0.9,1.1-1.9,2.3-2.5,3.8c-0.6,1.5-0.9,3-0.9,4.7h23V329.2z M428.9,293.4h9.9v22.9h0.2
	c0.8-1.1,1.5-2.1,2.5-2.8c0.9-0.9,2.1-1.5,3.2-2.3c1.1-0.6,2.5-1.1,3.8-1.3c1.3-0.4,2.6-0.6,3.8-0.6c3.4,0,6.7,0.6,9.2,1.9
	c2.6,1.3,4.7,2.8,6.5,5.2c1.7,2.1,3,4.7,3.8,7.7c0.9,2.8,1.3,6,1.3,9.4c0,3-0.4,6-1.1,8.8c-0.7,2.8-1.9,5.4-3.6,7.5
	c-1.5,2.1-3.6,3.8-6.1,5.2c-2.4,1.3-5.4,1.9-8.6,1.9c-1.5,0-3-0.2-4.5-0.4c-1.5-0.2-3-0.6-4.3-1.1c-1.3-0.6-2.6-1.3-3.8-2.3
	c-1.1-0.9-2.1-2.1-2.8-3.6h-0.2v6.1h-9.4v-61.8h0.2V293.4z M463.4,333.2c0-2.1-0.2-4-0.8-6c-0.6-1.9-1.3-3.6-2.3-5.2
	c-0.9-1.5-2.3-2.6-3.8-3.6c-1.5-0.9-3.4-1.3-5.4-1.3c-4.2,0-7.3,1.5-9.4,4.3s-3.2,6.7-3.2,11.4c0,2.3,0.2,4.3,0.8,6.3
	c0.6,1.9,1.3,3.6,2.5,5c1.1,1.3,2.5,2.5,4,3.2c1.5,0.8,3.2,1.1,5.4,1.1c2.3,0,4.2-0.4,5.8-1.3c1.5-0.9,2.8-2.1,3.8-3.6
	c1-1.5,1.7-3.2,2.1-5C463.2,337,463.4,335.1,463.4,333.2z"/>
</svg>
